<svg width="22" height="23" viewBox="0 0 22 23" fill="none" xmlns="http://www.w3.org/2000/svg">
<path d="M6 7.46154V5.84615C6 4.56087 6.52678 3.32824 7.46447 2.41941C8.40215 1.51058 9.67392 1 11 1V1C12.3261 1 13.5979 1.51058 14.5355 2.41941C15.4732 3.32824 16 4.56087 16 5.84615V7.46154M1.83333 7.46154C1.61232 7.46154 1.40036 7.54663 1.24408 7.69811C1.0878 7.84958 1 8.05502 1 8.26923V19.1731C1 20.6996 2.34167 22 3.91667 22H18.0833C19.6583 22 21 20.7627 21 19.2362V8.26923C21 8.05502 20.9122 7.84958 20.7559 7.69811C20.5996 7.54663 20.3877 7.46154 20.1667 7.46154H1.83333Z" stroke="black" stroke-width="2" stroke-linecap="round" stroke-linejoin="round"/>
</svg>
