<svg width="850" height="419" viewBox="0 0 850 419" fill="none" xmlns="http://www.w3.org/2000/svg">
<rect width="850" height="419" rx="20" fill="#B7BC9A"/>
<path d="M0 20H850V399H0V20Z" fill="#F6F6F6"/>
<rect x="2" y="174" width="19" height="225" fill="#BB342F"/>
<rect x="30" y="233" width="19" height="166" fill="#BB342F"/>
<rect x="59" y="261" width="19" height="138" fill="#BB342F"/>
<rect x="87" y="233" width="19" height="166" fill="#BB342F"/>
<rect x="116" y="202" width="19" height="197" fill="#BB342F"/>
<rect x="144" y="146" width="19" height="253" fill="#BB342F"/>
<rect x="173" y="128" width="19" height="271" fill="#BB342F"/>
<rect x="201" y="121" width="19" height="278" fill="#BB342F"/>
<rect x="230" y="146" width="19" height="253" fill="#BB342F"/>
<rect x="258" y="185" width="19" height="214" fill="#BB342F"/>
<rect x="287" y="208" width="19" height="191" fill="#BB342F"/>
<rect x="315" y="179" width="19" height="220" fill="#BB342F"/>
<rect x="344" y="166" width="19" height="235" fill="#BB342F"/>
<rect x="372" y="162" width="19" height="237" fill="#BB342F"/>
<rect x="401" y="137" width="19" height="262" fill="#BB342F"/>
<rect x="429" y="174" width="19" height="225" fill="#BB342F"/>
<rect x="458" y="196" width="19" height="203" fill="#BB342F"/>
<rect x="486" y="216" width="19" height="183" fill="#BB342F"/>
<rect x="515" y="233" width="19" height="166" fill="#BB342F"/>
<rect x="543" y="208" width="20" height="191" fill="#BB342F"/>
<rect x="572" y="179" width="19" height="220" fill="#BB342F"/>
<rect x="601" y="162" width="19" height="237" fill="#BB342F"/>
<rect x="629" y="202" width="19" height="197" fill="#BB342F"/>
<rect x="658" y="151" width="19" height="248" fill="#BB342F"/>
<rect x="686" y="146" width="19" height="253" fill="#BB342F"/>
<rect x="715" y="151" width="19" height="248" fill="#BB342F"/>
<rect x="743" y="196" width="19" height="203" fill="#BB342F"/>
<rect x="772" y="196" width="19" height="203" fill="#BB342F"/>
<rect x="800" y="185" width="19" height="214" fill="#BB342F"/>
<rect x="828.5" y="174" width="19" height="225" fill="#BB342F"/>
</svg>
