<svg width="24" height="25" viewBox="0 0 24 25" fill="none" xmlns="http://www.w3.org/2000/svg">
<path d="M3 6.72351H5H21" stroke="#BB342F" stroke-width="2" stroke-linecap="round" stroke-linejoin="round"/>
<path d="M8 6.72349V4.69945C8 4.16265 8.21071 3.64782 8.58579 3.26824C8.96086 2.88866 9.46957 2.67542 10 2.67542H14C14.5304 2.67542 15.0391 2.88866 15.4142 3.26824C15.7893 3.64782 16 4.16265 16 4.69945V6.72349M19 6.72349V20.8918C19 21.4286 18.7893 21.9434 18.4142 22.323C18.0391 22.7026 17.5304 22.9158 17 22.9158H7C6.46957 22.9158 5.96086 22.7026 5.58579 22.323C5.21071 21.9434 5 21.4286 5 20.8918V6.72349H19Z" stroke="#BB342F" stroke-width="2" stroke-linecap="round" stroke-linejoin="round"/>
<path d="M10 11.7836V17.8557" stroke="#BB342F" stroke-width="2" stroke-linecap="round" stroke-linejoin="round"/>
<path d="M14 11.7836V17.8557" stroke="#BB342F" stroke-width="2" stroke-linecap="round" stroke-linejoin="round"/>
</svg>
