<svg width="15" height="19" viewBox="0 0 15 19" fill="none" xmlns="http://www.w3.org/2000/svg">
<mask id="path-1-inside-1_548_641" fill="white">
<path d="M7.5 19L7.03846 18.5315C6.75 18.2712 0 11.0877 0 6.76712C0 3.01918 3.34615 0 7.5 0C11.6538 0 15 3.01918 15 6.76712C15 11.0877 8.25 18.2712 7.96154 18.5836L7.5 19ZM7.5 1.0411C3.98077 1.0411 1.15385 3.59178 1.15385 6.76712C1.15385 10.0986 6 15.7205 7.5 17.3863C9 15.7205 13.8462 10.0986 13.8462 6.76712C13.8462 3.59178 11.0192 1.0411 7.5 1.0411Z"/>
</mask>
<path d="M7.5 19L7.03846 18.5315C6.75 18.2712 0 11.0877 0 6.76712C0 3.01918 3.34615 0 7.5 0C11.6538 0 15 3.01918 15 6.76712C15 11.0877 8.25 18.2712 7.96154 18.5836L7.5 19ZM7.5 1.0411C3.98077 1.0411 1.15385 3.59178 1.15385 6.76712C1.15385 10.0986 6 15.7205 7.5 17.3863C9 15.7205 13.8462 10.0986 13.8462 6.76712C13.8462 3.59178 11.0192 1.0411 7.5 1.0411Z" fill="black"/>
<path d="M7.5 19L6.07525 20.4036L7.41862 21.7672L8.8398 20.4849L7.5 19ZM7.03846 18.5315L8.46321 17.1279L8.42193 17.086L8.37826 17.0466L7.03846 18.5315ZM7.96154 18.5836L9.30134 20.0685L9.36897 20.0074L9.43077 19.9405L7.96154 18.5836ZM7.5 17.3863L6.01378 18.7246L7.5 20.3751L8.98622 18.7246L7.5 17.3863ZM8.92475 17.5964L8.46321 17.1279L5.61371 19.9351L6.07525 20.4036L8.92475 17.5964ZM8.37826 17.0466C8.41166 17.0767 8.01279 16.6715 7.32888 15.8818C6.68189 15.1347 5.84848 14.1223 5.0282 12.9951C4.20313 11.8613 3.42008 10.6504 2.85096 9.50285C2.26172 8.3147 2 7.38718 2 6.76712H-2C-2 8.30734 -1.41797 9.89797 -0.732568 11.28C-0.0270523 12.7026 0.895426 14.114 1.79392 15.3487C3.56595 17.7838 5.41689 19.7622 5.69866 20.0164L8.37826 17.0466ZM2 6.76712C2 4.31225 4.25229 2 7.5 2V-2C2.44002 -2 -2 1.72611 -2 6.76712H2ZM7.5 2C10.7477 2 13 4.31225 13 6.76712H17C17 1.72611 12.56 -2 7.5 -2V2ZM13 6.76712C13 7.38721 12.7383 8.31476 12.1488 9.50412C11.5795 10.6529 10.7961 11.8658 9.97027 13.0037C8.32132 15.2759 6.63134 17.0761 6.4923 17.2266L9.43077 19.9405C9.5802 19.7787 11.4095 17.8309 13.2076 15.3531C14.1054 14.116 15.0275 12.7034 15.7328 11.2804C16.418 9.89791 17 8.30731 17 6.76712H13ZM6.62174 17.0987L6.1602 17.5151L8.8398 20.4849L9.30134 20.0685L6.62174 17.0987ZM7.5 -0.958904C3.07463 -0.958904 -0.846154 2.29871 -0.846154 6.76712H3.15385C3.15385 4.88485 4.88691 3.0411 7.5 3.0411V-0.958904ZM-0.846154 6.76712C-0.846154 8.03168 -0.402277 9.32207 0.122829 10.4449C0.664305 11.6027 1.38275 12.7699 2.1176 13.8363C3.58849 15.9707 5.24103 17.8665 6.01378 18.7246L8.98622 16.048C8.25897 15.2403 6.73843 13.4924 5.41125 11.5665C4.74706 10.6027 4.16021 9.63568 3.74616 8.75033C3.31574 7.82999 3.15385 7.16832 3.15385 6.76712H-0.846154ZM8.98622 18.7246C9.75897 17.8665 11.4115 15.9707 12.8824 13.8363C13.6173 12.7699 14.3357 11.6027 14.8772 10.4449C15.4023 9.32207 15.8462 8.03168 15.8462 6.76712H11.8462C11.8462 7.16832 11.6843 7.82999 11.2538 8.75033C10.8398 9.63568 10.2529 10.6027 9.58875 11.5665C8.26157 13.4924 6.74103 15.2403 6.01378 16.048L8.98622 18.7246ZM15.8462 6.76712C15.8462 2.29871 11.9254 -0.958904 7.5 -0.958904V3.0411C10.1131 3.0411 11.8462 4.88485 11.8462 6.76712H15.8462Z" fill="black" mask="url(#path-1-inside-1_548_641)"/>
<path d="M7.4998 10.92C5.9878 10.92 4.7998 9.644 4.7998 8.02C4.7998 6.396 5.9878 5.12 7.4998 5.12C9.01181 5.12 10.1998 6.396 10.1998 8.02C10.1998 9.644 9.01181 10.92 7.4998 10.92ZM7.4998 6.28C6.5818 6.28 5.8798 7.034 5.8798 8.02C5.8798 9.006 6.5818 9.76 7.4998 9.76C8.4178 9.76 9.1198 9.006 9.1198 8.02C9.1198 7.034 8.4178 6.28 7.4998 6.28Z" fill="black"/>
</svg>
