<svg width="145" height="43" viewBox="0 0 145 43" fill="none" xmlns="http://www.w3.org/2000/svg">
<path d="M5.728 38.2C4.032 38.2 2.72 37.704 1.792 36.712C0.832 35.72 0.352 34.376 0.352 32.68C0.352 32.264 0.384 31.864 0.448 31.48C0.48 31.096 0.528 30.744 0.592 30.424C1.168 27.704 2.624 24.584 4.96 21.064C6.496 18.696 8.208 16.552 10.096 14.632C12.016 12.712 13.984 11.176 16 10.024C18.048 8.872 20.016 8.296 21.904 8.296C22.992 8.296 23.792 8.6 24.304 9.208C24.816 9.784 25.072 10.568 25.072 11.56C25.072 12.712 24.784 14.04 24.208 15.544C23.6 17.048 22.848 18.472 21.952 19.816C21.088 21.128 20.24 22.088 19.408 22.696C19.28 22.824 19.136 22.888 18.976 22.888C18.848 22.888 18.784 22.808 18.784 22.648C18.784 22.296 19.008 21.944 19.456 21.592C19.872 21.304 20.32 20.808 20.8 20.104C21.312 19.368 21.792 18.552 22.24 17.656C22.72 16.76 23.104 15.864 23.392 14.968C23.712 14.072 23.872 13.304 23.872 12.664C23.872 11.128 23.104 10.36 21.568 10.36C18.656 10.36 15.84 11.48 13.12 13.72C11.296 15.192 9.632 16.92 8.128 18.904C6.656 20.856 5.392 22.856 4.336 24.904C3.312 26.952 2.56 28.888 2.08 30.712C1.888 31.416 1.792 32.12 1.792 32.824C1.792 34.2 2.192 35.288 2.992 36.088C3.76 36.888 4.816 37.224 6.16 37.096C8.624 36.872 11.344 35.896 14.32 34.168C16.272 33.016 18.16 31.72 19.984 30.28C21.808 28.84 23.504 27.336 25.072 25.768C26.64 24.168 28 22.632 29.152 21.16L26.848 21.496C26.144 21.592 25.552 21.704 25.072 21.832C24.624 21.928 24.32 22.008 24.16 22.072C24.096 22.104 24.016 22.12 23.92 22.12C23.728 22.12 23.632 21.976 23.632 21.688C23.632 21.4 23.728 21.064 23.92 20.68C24.144 20.296 24.384 20.04 24.64 19.912C25.504 19.464 27.568 19.128 30.832 18.904C32.24 17.304 33.696 15.704 35.2 14.104C36.8 12.376 38.144 10.904 39.232 9.688C40.32 8.472 41.28 7.352 42.112 6.328C42.976 5.272 43.808 4.184 44.608 3.064C44.864 2.712 45.12 2.536 45.376 2.536C45.568 2.536 45.664 2.632 45.664 2.824C45.664 3.016 45.6 3.176 45.472 3.304C44.384 4.84 43.248 6.344 42.064 7.816C40.88 9.288 39.568 10.856 38.128 12.52C36.72 14.152 35.12 16.008 33.328 18.088L32.704 18.808L34.912 18.712L39.136 18.568C39.104 18.632 39.248 18.344 39.568 17.704C39.888 17.032 40.368 16.008 41.008 14.632C41.904 12.776 42.688 11.128 43.36 9.688C44.064 8.216 44.64 6.952 45.088 5.896C46.016 3.816 46.496 2.376 46.528 1.576C46.56 1.16 46.768 0.839998 47.152 0.615999C47.536 0.391998 47.968 0.279998 48.448 0.279998C48.8 0.279998 49.12 0.343998 49.408 0.471998C49.728 0.567999 49.92 0.695999 49.984 0.855999C50.144 1.144 49.904 1.912 49.264 3.16C48.848 4.024 48.336 5.016 47.728 6.136C47.12 7.256 46.432 8.504 45.664 9.88C44.608 11.768 43.696 13.432 42.928 14.872C42.192 16.312 41.6 17.528 41.152 18.52L44.848 18.328H44.992C45.28 18.328 45.424 18.424 45.424 18.616C45.424 18.744 45.344 18.872 45.184 19C45.024 19.128 44.816 19.208 44.56 19.24L40.672 19.528C40.64 19.592 40.464 19.976 40.144 20.68C39.824 21.384 39.36 22.392 38.752 23.704C37.536 26.392 36.928 28.68 36.928 30.568C36.928 31.848 37.408 32.488 38.368 32.488C38.624 32.488 38.96 32.36 39.376 32.104C39.824 31.88 40.24 31.608 40.624 31.288C41.04 30.968 41.344 30.68 41.536 30.424C41.76 30.104 41.984 29.944 42.208 29.944C42.336 29.944 42.4 30.008 42.4 30.136C42.4 30.296 42.272 30.504 42.016 30.76C41.696 31.112 41.28 31.512 40.768 31.96C40.256 32.408 39.744 32.792 39.232 33.112C38.72 33.432 38.288 33.608 37.936 33.64C35.888 33.768 34.864 32.84 34.864 30.856C34.864 29.672 35.152 28.312 35.728 26.776C36.336 25.24 37.088 23.448 37.984 21.4L38.752 19.672C37.664 19.768 36.176 20.008 34.288 20.392C33.616 20.52 33.008 20.632 32.464 20.728C31.952 20.792 31.52 20.856 31.168 20.92C29.28 23.064 27.248 25.16 25.072 27.208C22.896 29.256 20.672 31.112 18.4 32.776C16.16 34.44 13.952 35.752 11.776 36.712C9.632 37.704 7.616 38.2 5.728 38.2ZM43.354 31.768C42.778 31.768 42.49 31.544 42.49 31.096C42.49 30.808 42.586 30.44 42.778 29.992C43.002 29.544 43.226 29.112 43.45 28.696C44.058 27.608 44.618 26.552 45.13 25.528C45.642 24.504 46.138 23.416 46.618 22.264C46.842 21.752 47.178 21.496 47.626 21.496C48.106 21.496 48.25 21.784 48.058 22.36C47.866 22.84 47.674 23.272 47.482 23.656C46.586 25.48 46.138 26.712 46.138 27.352C46.138 27.64 46.234 27.816 46.426 27.88C46.874 27.528 47.21 27.272 47.434 27.112C47.658 26.92 47.786 26.808 47.818 26.776C48.266 26.424 48.762 26.024 49.306 25.576C49.882 25.096 50.506 24.552 51.178 23.944C52.234 22.984 53.114 22.504 53.818 22.504C54.682 22.504 55.05 23.288 54.922 24.856C54.89 25.464 54.89 26.056 54.922 26.632C54.954 26.76 54.97 26.952 54.97 27.208C54.97 27.432 54.97 27.704 54.97 28.024C54.97 28.344 55.162 28.504 55.546 28.504C55.994 28.504 56.41 28.376 56.794 28.12L57.85 27.4L58.906 26.728C58.97 26.696 59.082 26.68 59.242 26.68C59.434 26.68 59.434 26.824 59.242 27.112C57.226 29.608 55.562 30.856 54.25 30.856C53.994 30.856 53.738 30.808 53.482 30.712C53.258 30.616 53.098 30.344 53.002 29.896C52.906 29.416 52.842 28.904 52.81 28.36C52.81 27.816 52.81 27.4 52.81 27.112L52.858 25.528C52.858 24.856 52.682 24.52 52.33 24.52C51.498 24.52 49.45 26.232 46.186 29.656C45.93 29.976 45.53 30.408 44.986 30.952C44.442 31.496 43.898 31.768 43.354 31.768ZM60.9168 31.816C59.6688 31.816 59.0448 31.256 59.0448 30.136C59.0448 30.072 59.0448 29.96 59.0448 29.8C59.0768 29.64 59.1088 29.448 59.1408 29.224C59.4608 27.912 60.1008 26.648 61.0608 25.432C62.0528 24.184 63.1888 23.096 64.4688 22.168C64.9488 21.784 65.7168 21.592 66.7728 21.592C67.3808 21.592 67.9088 21.688 68.3568 21.88C68.8368 22.04 69.1728 22.296 69.3648 22.648C69.5568 22.968 69.6528 23.336 69.6528 23.752C69.6528 23.816 69.6368 23.912 69.6048 24.04C69.6048 24.168 69.5888 24.312 69.5568 24.472C69.6208 24.44 69.7168 24.424 69.8448 24.424C70.0048 24.424 70.1968 24.408 70.4208 24.376C70.6448 24.344 70.8528 24.312 71.0448 24.28C71.2688 24.248 71.4928 24.232 71.7168 24.232H71.9088C72.2608 24.232 72.2928 24.376 72.0048 24.664C71.7488 24.92 71.3968 25.08 70.9488 25.144L69.3168 25.336C68.9968 26.232 68.4368 27.128 67.6368 28.024C66.8688 28.92 66.0048 29.704 65.0448 30.376C64.1168 31.016 63.2368 31.432 62.4048 31.624C61.9248 31.752 61.4288 31.816 60.9168 31.816ZM67.0608 24.664C67.2528 24.664 67.4768 24.664 67.7328 24.664C68.0208 24.632 68.3408 24.6 68.6928 24.568C68.7248 24.504 68.7408 24.36 68.7408 24.136C68.7408 23.56 68.5008 23.16 68.0208 22.936C67.7648 22.776 67.4448 22.696 67.0608 22.696C66.5808 22.696 66.0848 22.856 65.5728 23.176C65.0928 23.464 64.5808 23.848 64.0368 24.328C64.7088 24.552 65.7168 24.664 67.0608 24.664ZM62.3568 30.136C62.6768 30.136 63.1248 29.992 63.7008 29.704C64.3088 29.384 64.9328 28.968 65.5728 28.456C66.2128 27.944 66.7888 27.4 67.3008 26.824C67.4608 26.664 67.6208 26.472 67.7808 26.248C67.9408 25.992 68.1168 25.736 68.3088 25.48L67.1568 25.624C65.3648 25.88 63.7648 26.024 62.3568 26.056C61.6528 27.208 61.2208 28.168 61.0608 28.936C61.0288 29.352 61.1408 29.656 61.3968 29.848C61.6528 30.04 61.9728 30.136 62.3568 30.136ZM70.9165 31.768C70.3405 31.768 70.0525 31.544 70.0525 31.096C70.0525 30.808 70.1485 30.44 70.3405 29.992C70.5645 29.544 70.7885 29.112 71.0125 28.696C71.6205 27.608 72.1805 26.552 72.6925 25.528C73.2045 24.504 73.7005 23.416 74.1805 22.264C74.4045 21.752 74.7405 21.496 75.1885 21.496C75.6685 21.496 75.8125 21.784 75.6205 22.36C75.4285 22.84 75.2365 23.272 75.0445 23.656C74.1485 25.48 73.7005 26.712 73.7005 27.352C73.7005 27.64 73.7965 27.816 73.9885 27.88C74.4365 27.528 74.7725 27.272 74.9965 27.112C75.2205 26.92 75.3485 26.808 75.3805 26.776C75.8285 26.424 76.3245 26.024 76.8685 25.576C77.4445 25.096 78.0685 24.552 78.7405 23.944C79.7965 22.984 80.6765 22.504 81.3805 22.504C82.2445 22.504 82.6125 23.288 82.4845 24.856C82.4525 25.464 82.4525 26.056 82.4845 26.632C82.5165 26.76 82.5325 26.952 82.5325 27.208C82.5325 27.432 82.5325 27.704 82.5325 28.024C82.5325 28.344 82.7245 28.504 83.1085 28.504C83.5565 28.504 83.9725 28.376 84.3565 28.12L85.4125 27.4L86.4685 26.728C86.5325 26.696 86.6445 26.68 86.8045 26.68C86.9965 26.68 86.9965 26.824 86.8045 27.112C84.7885 29.608 83.1245 30.856 81.8125 30.856C81.5565 30.856 81.3005 30.808 81.0445 30.712C80.8205 30.616 80.6605 30.344 80.5645 29.896C80.4685 29.416 80.4045 28.904 80.3725 28.36C80.3725 27.816 80.3725 27.4 80.3725 27.112L80.4205 25.528C80.4205 24.856 80.2445 24.52 79.8925 24.52C79.0605 24.52 77.0125 26.232 73.7485 29.656C73.4925 29.976 73.0925 30.408 72.5485 30.952C72.0045 31.496 71.4605 31.768 70.9165 31.768ZM91.1193 42.232C90.4473 42.232 90.1113 41.848 90.1113 41.08C90.1113 40.44 90.3033 39.688 90.6873 38.824C91.0073 38.12 91.3593 37.416 91.7433 36.712C92.1273 36.04 92.5593 35.368 93.0393 34.696C94.6393 32.52 96.2073 30.552 97.7433 28.792C99.2793 27.032 100.911 25.368 102.639 23.8C104.367 22.2 106.287 20.632 108.399 19.096C108.847 18.072 109.231 17.128 109.551 16.264C109.903 15.4 110.159 14.6 110.319 13.864C110.191 13.992 109.775 14.408 109.071 15.112C108.367 15.784 107.375 16.728 106.095 17.944L103.119 20.728C101.775 22.008 100.639 23.064 99.7113 23.896C98.7833 24.696 97.8233 25.464 96.8313 26.2C94.5593 27.896 92.7033 28.744 91.2633 28.744C90.9113 28.744 90.6873 28.728 90.5913 28.696C89.4713 28.44 88.9113 27.624 88.9113 26.248C88.9113 25.192 89.2313 23.88 89.8713 22.312C90.5113 20.744 91.3753 19.096 92.4633 17.368C93.5833 15.608 94.7353 14.008 95.9193 12.568C97.1353 11.096 98.4153 9.688 99.7593 8.344C101.135 7 102.511 5.8 103.887 4.744C105.263 3.656 106.527 2.84 107.679 2.296C108.831 1.752 110.063 1.48 111.375 1.48C111.631 1.48 111.903 1.496 112.191 1.528C112.479 1.56 112.783 1.608 113.103 1.672C113.807 1.832 114.399 2.2 114.879 2.776C115.359 3.32 115.599 3.992 115.599 4.792C115.599 5.592 115.327 6.44 114.783 7.336C114.527 7.72 114.191 8.072 113.775 8.392C113.359 8.68 112.991 8.856 112.671 8.92H112.527C112.239 8.92 112.095 8.808 112.095 8.584V8.488C112.095 8.136 112.271 7.704 112.623 7.192C113.327 6.104 113.679 5.112 113.679 4.216C113.679 3.32 113.247 2.872 112.383 2.872C111.583 2.872 110.367 3.336 108.735 4.264C107.583 4.904 106.351 5.72 105.039 6.712C103.759 7.672 102.479 8.712 101.199 9.832C99.9513 10.952 98.7993 12.088 97.7433 13.24C96.6873 14.392 95.6633 15.688 94.6713 17.128C93.7113 18.568 92.9273 19.96 92.3193 21.304C91.6473 22.776 91.3113 23.96 91.3113 24.856C91.3113 25.72 91.6153 26.216 92.2233 26.344C92.3833 26.376 92.5273 26.408 92.6553 26.44C92.7833 26.44 92.8793 26.44 92.9433 26.44C93.9993 26.44 95.1033 26.056 96.2553 25.288C97.4073 24.52 98.6393 23.56 99.9513 22.408C101.359 21.096 102.687 19.816 103.935 18.568C105.215 17.288 106.383 16.024 107.439 14.776L109.551 12.28L110.415 11.272C110.607 11.048 110.895 10.936 111.279 10.936C111.663 10.936 111.999 11.048 112.287 11.272C112.607 11.464 112.751 11.704 112.719 11.992C112.591 12.632 112.383 13.416 112.095 14.344C111.839 15.24 111.487 16.264 111.039 17.416C111.679 17.064 112.239 16.76 112.719 16.504C113.231 16.216 113.663 15.992 114.015 15.832C114.271 15.736 114.447 15.704 114.543 15.736C114.639 15.736 114.687 15.784 114.687 15.88C114.687 15.976 114.607 16.12 114.447 16.312C114.287 16.472 114.063 16.616 113.775 16.744C113.423 16.936 112.959 17.224 112.383 17.608C111.839 17.992 111.167 18.456 110.367 19C109.407 21.208 108.223 23.512 106.815 25.912C105.439 28.28 103.903 30.568 102.207 32.776C100.543 35.016 98.7833 37.032 96.9273 38.824C96.3833 39.336 95.7433 39.848 95.0073 40.36C94.3033 40.904 93.5993 41.352 92.8953 41.704C92.2233 42.056 91.6313 42.232 91.1193 42.232ZM93.7593 39.304C94.3033 39.304 94.7833 39.128 95.1993 38.776C95.6473 38.424 95.9833 38.136 96.2073 37.912C98.0633 36.12 99.9673 33.736 101.919 30.76C103.871 27.784 105.695 24.6 107.391 21.208C105.855 22.456 104.511 23.592 103.359 24.616C102.207 25.64 101.151 26.664 100.191 27.688C99.2633 28.68 98.3353 29.752 97.4073 30.904C96.5113 32.056 95.5353 33.368 94.4793 34.84C93.8073 35.736 93.3273 36.696 93.0393 37.72C93.0073 37.816 92.9753 37.928 92.9433 38.056C92.9433 38.184 92.9433 38.328 92.9433 38.488C92.9433 39.032 93.2153 39.304 93.7593 39.304ZM115.136 20.488C114.72 20.488 114.512 20.392 114.512 20.2C114.512 20.04 114.624 19.816 114.848 19.528C115.104 19.208 115.392 18.936 115.712 18.712C116.416 18.264 116.96 17.88 117.344 17.56C117.76 17.24 118.256 16.696 118.832 15.928C118.864 15.992 118.88 16.12 118.88 16.312C118.88 16.728 118.704 17.24 118.352 17.848C118.032 18.424 117.664 18.952 117.248 19.432C116.832 19.912 116.464 20.216 116.144 20.344C115.856 20.44 115.52 20.488 115.136 20.488ZM110.864 32.248C110.608 32.248 110.368 32.152 110.144 31.96C109.92 31.768 109.808 31.512 109.808 31.192C109.808 30.52 110.272 29.288 111.2 27.496L111.728 26.44C111.792 26.376 111.872 26.216 111.968 25.96C112.096 25.704 112.272 25.368 112.496 24.952C112.72 24.504 112.896 24.104 113.024 23.752C113.152 23.4 113.248 23.064 113.312 22.744C113.312 22.712 113.376 22.648 113.504 22.552C113.632 22.456 113.76 22.376 113.888 22.312L114.176 22.264C114.432 22.264 114.64 22.312 114.8 22.408C114.992 22.504 115.056 22.632 114.992 22.792C114.768 23.272 114.576 23.688 114.416 24.04C114.256 24.392 114.128 24.696 114.032 24.952H113.984C113.632 25.752 113.328 26.52 113.072 27.256C112.848 27.96 112.752 28.632 112.784 29.272L112.832 30.568C112.8 30.888 112.688 31.16 112.496 31.384C112.368 31.48 112.192 31.592 111.968 31.72C111.744 31.88 111.456 32.04 111.104 32.2C111.072 32.232 110.992 32.248 110.864 32.248ZM116.642 34.168C116.29 34.168 115.986 34.056 115.73 33.832C115.506 33.608 115.41 33.336 115.442 33.016C115.346 32.568 115.41 31.912 115.634 31.048C115.89 30.216 116.242 29.272 116.69 28.216C117.138 27.16 117.618 26.072 118.13 24.952C118.674 23.832 119.186 22.792 119.666 21.832L116.45 22.696H116.354C116.13 22.696 116.018 22.584 116.018 22.36C116.018 22.04 116.146 21.672 116.402 21.256C116.69 20.808 116.994 20.536 117.314 20.44C117.634 20.312 118.082 20.2 118.658 20.104C119.234 20.008 119.954 19.896 120.818 19.768C126.258 10.648 129.698 6.024 131.138 5.896C132.834 5.704 133.682 6.776 133.682 9.112C133.682 9.4 133.65 9.752 133.586 10.168C133.554 10.552 133.506 11.016 133.442 11.56C133.41 11.88 133.298 12.04 133.106 12.04C132.978 12.04 132.866 11.944 132.77 11.752C132.706 11.56 132.706 11.32 132.77 11.032C132.866 10.456 132.914 9.976 132.914 9.592C132.914 8.344 132.546 7.72 131.81 7.72C131.074 7.72 129.906 8.872 128.306 11.176C127.506 12.36 126.642 13.656 125.714 15.064C124.818 16.44 123.874 17.928 122.882 19.528C123.17 19.496 123.458 19.48 123.746 19.48C124.034 19.448 124.306 19.432 124.562 19.432C124.85 19.432 125.17 19.432 125.522 19.432C125.906 19.4 126.306 19.368 126.722 19.336C126.978 19.144 127.218 19.048 127.442 19.048C127.858 19.048 128.066 19.272 128.066 19.72C128.066 20.2 127.794 20.44 127.25 20.44C127.09 20.44 126.866 20.392 126.578 20.296C125.746 20.36 125.106 20.44 124.658 20.536C124.21 20.6 123.794 20.696 123.41 20.824C123.026 20.92 122.514 21.048 121.874 21.208C121.074 22.52 120.322 23.832 119.618 25.144C118.914 26.424 118.322 27.608 117.842 28.696C117.394 29.784 117.17 30.68 117.17 31.384C117.17 32.024 117.426 32.36 117.938 32.392C118.386 32.2 118.706 32.104 118.898 32.104C119.122 32.104 119.234 32.184 119.234 32.344C119.234 32.632 118.898 33.032 118.226 33.544C117.714 33.96 117.186 34.168 116.642 34.168ZM125.719 35.464C125.559 35.464 125.479 35.32 125.479 35.032C125.479 34.968 125.479 34.872 125.479 34.744C125.511 34.648 125.543 34.536 125.575 34.408L127.639 29.224L130.087 23.176C129.703 23.144 129.143 23.16 128.407 23.224C127.671 23.256 127.047 23.32 126.535 23.416C126.343 23.448 126.183 23.48 126.055 23.512C125.959 23.512 125.879 23.512 125.815 23.512C125.559 23.512 125.383 23.4 125.287 23.176C125.319 22.984 125.495 22.808 125.815 22.648C125.975 22.584 126.167 22.536 126.391 22.504C126.615 22.44 126.887 22.376 127.207 22.312C127.559 22.248 127.863 22.2 128.119 22.168C128.407 22.136 128.615 22.104 128.743 22.072C128.903 22.04 129.063 22.008 129.223 21.976C129.383 21.944 129.575 21.912 129.799 21.88C129.991 21.848 130.199 21.816 130.423 21.784C130.647 21.752 130.887 21.704 131.143 21.64C131.399 21.288 131.783 20.664 132.295 19.768C132.807 18.872 133.463 17.688 134.263 16.216C134.903 15.032 135.415 14.104 135.799 13.432C136.215 12.728 136.503 12.264 136.663 12.04C136.951 11.656 137.287 11.464 137.671 11.464C137.863 11.464 137.959 11.544 137.959 11.704C137.959 11.736 137.879 11.944 137.719 12.328C137.527 12.648 137.207 13.24 136.759 14.104C136.311 14.968 135.831 15.912 135.319 16.936C134.807 17.96 134.343 18.92 133.927 19.816C133.511 20.712 133.223 21.368 133.063 21.784C133.223 21.752 133.399 21.736 133.591 21.736C133.815 21.736 134.087 21.736 134.407 21.736C134.759 21.736 135.079 21.752 135.367 21.784C135.687 21.784 135.959 21.8 136.183 21.832C136.631 21.928 136.855 22.056 136.855 22.216C136.855 22.28 136.711 22.392 136.423 22.552C136.263 22.616 135.959 22.68 135.511 22.744C135.063 22.808 134.471 22.872 133.735 22.936C133.543 22.936 133.335 22.952 133.111 22.984C132.887 22.984 132.647 23 132.391 23.032C131.431 24.6 130.119 27.208 128.455 30.856C127.847 32.072 127.383 33.016 127.063 33.688C126.743 34.36 126.551 34.76 126.487 34.888C126.199 35.272 125.943 35.464 125.719 35.464ZM133.694 33.016C133.182 33.016 132.734 32.968 132.35 32.872C131.998 32.776 131.822 32.648 131.822 32.488C131.822 32.232 132.078 32.088 132.59 32.056C133.07 32.024 133.39 31.976 133.55 31.912C133.838 31.848 134.174 31.8 134.558 31.768C134.91 31.704 135.198 31.656 135.422 31.624C136.958 31.176 137.726 30.488 137.726 29.56C137.726 28.92 137.39 28.104 136.718 27.112C136.302 26.504 136.094 25.832 136.094 25.096C136.094 24.2 136.366 23.32 136.91 22.456C137.486 21.592 138.19 20.84 139.022 20.2C139.886 19.528 140.75 19.08 141.614 18.856C141.998 18.76 142.398 18.712 142.814 18.712C143.486 18.712 143.966 18.872 144.254 19.192C144.446 19.384 144.542 19.8 144.542 20.44C144.542 20.92 144.462 21.416 144.302 21.928C144.142 22.408 143.918 22.808 143.63 23.128C143.47 23.288 143.342 23.368 143.246 23.368C143.086 23.368 143.006 23.144 143.006 22.696L143.054 21.736C143.086 21.48 143.102 21.256 143.102 21.064C143.134 20.872 143.15 20.712 143.15 20.584C143.15 20.04 143.038 19.72 142.814 19.624C142.558 19.56 142.382 19.528 142.286 19.528C141.614 19.528 140.894 19.832 140.126 20.44C139.358 21.048 138.734 21.752 138.254 22.552C138.062 22.84 137.966 23.192 137.966 23.608C137.966 24.12 138.094 24.728 138.35 25.432C138.638 26.104 138.846 26.6 138.974 26.92C139.294 27.624 139.534 28.232 139.694 28.744C139.886 29.256 139.982 29.704 139.982 30.088C139.982 30.28 139.966 30.424 139.934 30.52C140.094 30.456 140.478 30.36 141.086 30.232C141.63 30.104 142.094 30.04 142.478 30.04C142.702 30.04 142.814 30.088 142.814 30.184C142.814 30.216 142.718 30.328 142.526 30.52C142.43 30.616 142.126 30.776 141.614 31C141.134 31.192 140.558 31.4 139.886 31.624C139.246 31.848 138.606 32.056 137.966 32.248C137.326 32.44 136.782 32.584 136.334 32.68C135.566 32.904 134.686 33.016 133.694 33.016Z" fill="black"/>
</svg>
