<svg width="25" height="24" viewBox="0 0 25 24" fill="none" xmlns="http://www.w3.org/2000/svg">
<path d="M3.00269 6H5.00269H21.0027" stroke="#111111" stroke-width="2" stroke-linecap="round" stroke-linejoin="round"/>
<path d="M8.00269 6V4C8.00269 3.46957 8.2134 2.96086 8.58847 2.58579C8.96355 2.21071 9.47225 2 10.0027 2H14.0027C14.5331 2 15.0418 2.21071 15.4169 2.58579C15.792 2.96086 16.0027 3.46957 16.0027 4V6M19.0027 6V20C19.0027 20.5304 18.792 21.0391 18.4169 21.4142C18.0418 21.7893 17.5331 22 17.0027 22H7.00269C6.47225 22 5.96354 21.7893 5.58847 21.4142C5.2134 21.0391 5.00269 20.5304 5.00269 20V6H19.0027Z" stroke="#111111" stroke-width="2" stroke-linecap="round" stroke-linejoin="round"/>
<path d="M10.0027 11V17" stroke="#111111" stroke-width="2" stroke-linecap="round" stroke-linejoin="round"/>
<path d="M14.0027 11V17" stroke="#111111" stroke-width="2" stroke-linecap="round" stroke-linejoin="round"/>
</svg>
