<svg fill="#fff" width="24" height="24" viewBox="0 0 24 24" xmlns="http://www.w3.org/2000/svg">
<path d="M11.8682 0C6.92187 0.000466672 3.49448 0.0169201 1.73518 1.73494C0.0172486 3.49387 0.000795048 7.08222 0.000795048 11.8677C5.31446 11.7073 7.74437 11.5743 9.68241 9.68184C11.5747 7.74378 11.7079 5.31391 11.8682 0ZM1.73487 22.2654C0.0169415 20.5066 0.000488281 16.9182 0.000488281 12.1328C5.31416 12.2931 7.74408 12.4261 9.68214 14.3187C11.5744 16.2567 11.7075 18.6866 11.8679 24C6.92157 24 3.49417 23.984 1.73487 22.2654ZM12.1331 24C12.2935 18.6866 12.4266 16.2567 14.319 14.3187C16.257 12.4261 18.6869 12.2931 24.0005 12.1328C24.0001 16.9182 23.9836 20.5066 22.2657 22.2654C20.5063 23.984 17.0795 24 12.1331 24ZM12.1331 0C12.2935 5.31391 12.4266 7.74378 14.319 9.68184C16.257 11.5743 18.6869 11.7073 24.0005 11.8677C24.0001 7.08222 23.9836 3.49387 22.2657 1.73494C20.5063 0.0169201 17.0795 0.000466672 12.1331 0Z"/>
</svg>
